<?xml version="1.0" encoding="UTF-8" standalone="no"?>
<!DOCTYPE svg PUBLIC "-//W3C//DTD SVG 1.1//EN" "http://www.w3.org/Graphics/SVG/1.1/DTD/svg11.dtd">
<svg width="100%" height="100%" viewBox="0 0 1561 235" version="1.1" xmlns="http://www.w3.org/2000/svg" xmlns:xlink="http://www.w3.org/1999/xlink" xml:space="preserve" xmlns:serif="http://www.serif.com/" style="fill-rule:evenodd;clip-rule:evenodd;stroke-linejoin:round;stroke-miterlimit:2;">
    <g transform="matrix(1,0,0,1,-1206,-397)">
        <g id="Indentado-Logo" serif:id="Indentado Logo" transform="matrix(1.56798,0,0,1,-880.085,0)">
            <rect x="1288.33" y="0" width="1080" height="1080" style="fill:none;"/>
            <g transform="matrix(0.933022,0,0,1.01136,116.495,-7.29348)">
                <g transform="matrix(2.8481,0,0,4.11988,1374.74,626.383)">
                    <path d="M0,-35.699L0,0L-12.857,0L-12.857,-22.842L-25.713,-22.842L-25.713,-35.699L0,-35.699Z" style="fill:rgb(206,31,58);fill-rule:nonzero;"/>
                </g>
                <g transform="matrix(2.8481,0,0,4.11988,1435.74,540.776)">
                    <path d="M0,4.787L0,20.779L-12.854,20.779L-12.854,3.215C-12.854,-7.281 -6.713,-15.992 6.498,-15.992C19.707,-15.992 25.848,-7.281 25.848,3.215L25.848,20.779L12.992,20.779L12.992,4.787C12.992,0.287 11.209,-3.498 6.498,-3.498C1.783,-3.498 0,0.287 0,4.787" style="fill:rgb(206,31,58);fill-rule:nonzero;"/>
                </g>
                <g transform="matrix(2.8481,0,0,4.11988,1600.87,489.602)">
                    <path d="M0,15.351C0,11.638 -2.715,8.496 -6.781,8.496C-10.852,8.496 -13.566,11.638 -13.566,15.351C-13.566,19.134 -10.852,22.205 -6.781,22.205C-2.715,22.205 0,19.134 0,15.351M-26.42,15.421C-26.42,3.997 -18.85,-3.571 -7.498,-3.571C-4.855,-3.571 -2.215,-2.786 0,-1.571L0,-18.922L12.854,-18.922L12.854,15.421C12.854,26.347 4.641,34.273 -6.781,34.273C-17.922,34.273 -26.42,25.775 -26.42,15.421" style="fill:rgb(206,31,58);fill-rule:nonzero;"/>
                </g>
                <g transform="matrix(2.8481,0,0,4.11988,1723.29,569.314)">
                    <path d="M0,-8.425C-0.572,-10.425 -2.572,-12.28 -5.57,-12.28C-8.639,-12.28 -10.711,-10.495 -11.496,-8.425L0,-8.425ZM-24.42,-4.427C-24.42,-14.708 -16.709,-23.277 -5.426,-23.277C6.281,-23.277 12.779,-14.566 12.779,-4.997L12.779,-1.784L-12.066,-1.784C-11.211,1.786 -8.496,3.929 -4.572,3.929C-1.143,3.929 1.57,2.071 2.855,-0.714L12.711,4.214C9.641,10.854 3.568,14.852 -4.428,14.852C-15.852,14.852 -24.42,7.284 -24.42,-4.427" style="fill:rgb(206,31,58);fill-rule:nonzero;"/>
                </g>
                <g transform="matrix(2.8481,0,0,4.11988,1814.59,540.776)">
                    <path d="M0,4.787L0,20.779L-12.852,20.779L-12.852,3.215C-12.852,-7.281 -6.709,-15.992 6.498,-15.992C19.709,-15.992 25.848,-7.281 25.848,3.215L25.848,20.779L12.996,20.779L12.996,4.787C12.996,0.287 11.213,-3.498 6.498,-3.498C1.787,-3.498 0,0.287 0,4.787" style="fill:rgb(206,31,58);fill-rule:nonzero;"/>
                </g>
                <g transform="matrix(2.8481,0,0,4.11988,1917.7,546.668)">
                    <path d="M0,4.142L0,-5.641L-6.07,-5.641L-6.07,-16.352L24.564,-16.352L24.564,-5.641L12.852,-5.641L12.852,3.712C12.852,7.14 14.924,9.068 18.279,9.068C20.064,9.068 22.85,8.568 24.564,7.64L24.564,18.994C22.777,19.992 19.492,20.494 17.064,20.494C5.426,20.494 0,13.638 0,4.142" style="fill:rgb(206,31,58);fill-rule:nonzero;"/>
                </g>
                <g transform="matrix(2.8481,0,0,4.11988,2075.1,552.549)">
                    <path d="M0,0.072C0,-3.713 -2.713,-6.854 -6.783,-6.854C-10.854,-6.854 -13.564,-3.713 -13.564,0.072C-13.564,3.785 -10.854,6.926 -6.783,6.926C-2.713,6.926 0,3.785 0,0.072M-26.418,0C-26.418,-10.354 -17.92,-18.922 -6.783,-18.922C4.641,-18.922 12.854,-10.924 12.854,0L12.854,17.922L0.717,17.922L0.717,15.281C-1.568,17.636 -4.781,18.994 -8.926,18.994C-19.35,18.994 -26.418,10.426 -26.418,0" style="fill:rgb(206,31,58);fill-rule:nonzero;"/>
                </g>
                <g transform="matrix(2.8481,0,0,4.11988,2203.22,489.602)">
                    <path d="M0,15.351C0,11.638 -2.713,8.496 -6.781,8.496C-10.854,8.496 -13.566,11.638 -13.566,15.351C-13.566,19.134 -10.854,22.205 -6.781,22.205C-2.713,22.205 0,19.134 0,15.351M-26.42,15.421C-26.42,3.997 -18.85,-3.571 -7.496,-3.571C-4.854,-3.571 -2.213,-2.786 0,-1.571L0,-18.922L12.852,-18.922L12.852,15.421C12.852,26.347 4.641,34.273 -6.781,34.273C-17.922,34.273 -26.42,25.775 -26.42,15.421" style="fill:rgb(206,31,58);fill-rule:nonzero;"/>
                </g>
                <g transform="matrix(2.8481,0,0,4.11988,2331.33,552.549)">
                    <path d="M0,0.072C0,-3.713 -2.713,-6.854 -6.783,-6.854C-10.854,-6.854 -13.564,-3.713 -13.564,0.072C-13.564,3.785 -10.854,6.926 -6.783,6.926C-2.713,6.926 0,3.785 0,0.072M-26.418,0C-26.418,-10.354 -17.92,-18.922 -6.783,-18.922C4.355,-18.922 12.852,-10.354 12.852,0C12.852,10.426 4.355,18.994 -6.783,18.994C-17.92,18.994 -26.418,10.426 -26.418,0" style="fill:rgb(206,31,58);fill-rule:nonzero;"/>
                </g>
            </g>
        </g>
    </g>
</svg>
